<svg width="21" height="20" viewBox="0 0 21 20" fill="none" xmlns="http://www.w3.org/2000/svg">
<rect x="0.5" width="20" height="20" rx="10" fill="white"/>
<mask id="path-2-inside-1_85_112" fill="white">
<path fill-rule="evenodd" clip-rule="evenodd" d="M9.9 12.8C12.3301 12.8 14.3 10.8301 14.3 8.4C14.3 5.96995 12.3301 4 9.9 4C7.46995 4 5.5 5.96995 5.5 8.4C5.5 10.8301 7.46995 12.8 9.9 12.8ZM9.89998 11.92C11.844 11.92 13.42 10.344 13.42 8.39998C13.42 6.45594 11.844 4.87998 9.89998 4.87998C7.95594 4.87998 6.37998 6.45594 6.37998 8.39998C6.37998 10.344 7.95594 11.92 9.89998 11.92Z"/>
</mask>
<path fill-rule="evenodd" clip-rule="evenodd" d="M9.9 12.8C12.3301 12.8 14.3 10.8301 14.3 8.4C14.3 5.96995 12.3301 4 9.9 4C7.46995 4 5.5 5.96995 5.5 8.4C5.5 10.8301 7.46995 12.8 9.9 12.8ZM9.89998 11.92C11.844 11.92 13.42 10.344 13.42 8.39998C13.42 6.45594 11.844 4.87998 9.89998 4.87998C7.95594 4.87998 6.37998 6.45594 6.37998 8.39998C6.37998 10.344 7.95594 11.92 9.89998 11.92Z" fill="black"/>
<path d="M13.3 8.4C13.3 10.2778 11.7778 11.8 9.9 11.8V13.8C12.8823 13.8 15.3 11.3823 15.3 8.4H13.3ZM9.9 5C11.7778 5 13.3 6.52223 13.3 8.4H15.3C15.3 5.41766 12.8823 3 9.9 3V5ZM6.5 8.4C6.5 6.52223 8.02223 5 9.9 5V3C6.91766 3 4.5 5.41766 4.5 8.4H6.5ZM9.9 11.8C8.02223 11.8 6.5 10.2778 6.5 8.4H4.5C4.5 11.3823 6.91766 13.8 9.9 13.8V11.8ZM12.42 8.39998C12.42 9.79174 11.2917 10.92 9.89998 10.92V12.92C12.3963 12.92 14.42 10.8963 14.42 8.39998H12.42ZM9.89998 5.87998C11.2917 5.87998 12.42 7.00822 12.42 8.39998H14.42C14.42 5.90365 12.3963 3.87998 9.89998 3.87998V5.87998ZM7.37998 8.39998C7.37998 7.00822 8.50822 5.87998 9.89998 5.87998V3.87998C7.40365 3.87998 5.37998 5.90365 5.37998 8.39998H7.37998ZM9.89998 10.92C8.50822 10.92 7.37998 9.79174 7.37998 8.39998H5.37998C5.37998 10.8963 7.40365 12.92 9.89998 12.92V10.92Z" fill="#282828" mask="url(#path-2-inside-1_85_112)"/>
<path d="M15.5096 16.3124C15.6821 16.528 15.9967 16.563 16.2124 16.3905C16.428 16.2179 16.463 15.9033 16.2905 15.6877L15.5096 16.3124ZM12.3096 12.3123L15.5096 16.3124L16.2905 15.6877L13.0904 11.6877L12.3096 12.3123Z" fill="#282828"/>
</svg>
