<svg width="24" height="24" viewBox="0 0 24 24" fill="none" xmlns="http://www.w3.org/2000/svg">
<g clip-path="url(#clip0_49_2)">
<path d="M18.7406 0.9375H5.25937C2.87812 0.9375 0.9375 2.75625 0.9375 4.99688V19.0125C0.9375 21.2531 2.87812 23.0719 5.25937 23.0719H18.7312C21.1219 23.0719 23.0531 21.2531 23.0531 19.0125V4.99688C23.0625 2.75625 21.1219 0.9375 18.7406 0.9375ZM21.5156 19.0125C21.5156 20.4 20.2687 21.525 18.7406 21.525H5.25937C3.73125 21.525 2.48437 20.4 2.48437 19.0125V4.99688C2.48437 3.60938 3.73125 2.49375 5.25937 2.49375H18.7312C20.2594 2.49375 21.5062 3.61875 21.5062 4.99688L21.5156 19.0125Z" fill="black"/>
<path d="M17 13H7V11H17V13Z" fill="black"/>
<rect x="11" y="7" width="2" height="10" fill="black"/>
</g>
<defs>
<clipPath id="clip0_49_2">
<rect width="24" height="24" fill="white"/>
</clipPath>
</defs>
</svg>
