<svg width="25" height="24" viewBox="0 0 25 24" fill="none" xmlns="http://www.w3.org/2000/svg">
<path d="M4.87837 11.225C5.26889 10.8345 5.90288 10.8345 6.29341 11.225C6.68358 11.6155 6.68354 12.2486 6.29341 12.6391L2.91352 16.019C1.54699 17.3858 1.54687 19.6015 2.91352 20.9682C4.28027 22.335 6.49588 22.3348 7.86274 20.9682L11.2426 17.5893C11.6331 17.1988 12.2662 17.1988 12.6567 17.5893C13.0472 17.9798 13.0472 18.6129 12.6567 19.0034L9.38911 22.2709C7.24121 24.4187 3.75862 24.4188 1.61079 22.2709C-0.53695 20.1231 -0.536909 16.6405 1.61079 14.4926L4.87837 11.225ZM13.4936 2.61079C15.6415 0.463089 19.1231 0.463051 21.2709 2.61079C22.6443 3.98414 23.1382 5.90255 22.7553 7.66938C22.1772 7.3329 21.5473 7.07676 20.8793 6.91645C21.0112 5.87922 20.6808 4.79407 19.8842 3.99751C18.5174 2.6308 16.3008 2.63078 14.934 3.99751L11.6391 7.29341C11.2487 7.68374 10.6156 7.68365 10.225 7.29341C9.83456 6.90292 9.83463 6.26988 10.225 5.87935L13.4936 2.61079Z" fill="black"/>
<circle cx="19.2401" cy="13.7215" r="5" fill="black"/>
<path d="M20.2401 12.7215H22.2401V14.7215H20.2401V16.7215H18.2401V14.7215H16.2401V12.7215H18.2401V10.7215H20.2401V12.7215Z" fill="white"/>
<rect x="14.7254" y="7.72153" width="2" height="12" rx="1" transform="rotate(45 14.7254 7.72153)" fill="black"/>
</svg>
