<svg width="24" height="24" viewBox="0 0 24 24" fill="none" xmlns="http://www.w3.org/2000/svg">
<path d="M13.2861 2C16.5996 2.00023 19.2861 4.68643 19.2861 8C19.2861 9.55718 18.6926 10.9756 17.7197 12.042C19.1008 13.0412 20 14.6651 20 16.5C20 19.5376 17.5376 22 14.5 22H5V19H6V5H5V2H13.2861ZM8.57129 19H15.0713C16.452 19 17.5713 17.8807 17.5713 16.5C17.5713 15.1193 16.452 14 15.0713 14H8.57129V19ZM8.57129 11H13.5713C15.2281 11 16.5713 9.65685 16.5713 8C16.5713 6.34315 15.2281 5 13.5713 5H8.57129V11Z" fill="black"/>
</svg>
