<svg width="24" height="24" viewBox="0 0 24 24" fill="none" xmlns="http://www.w3.org/2000/svg">
<g clip-path="url(#clip0_29_23)">
<path d="M18.7406 0.9375H5.25937C2.87812 0.9375 0.9375 2.75625 0.9375 4.99688V19.0125C0.9375 21.2531 2.87812 23.0719 5.25937 23.0719H18.7312C21.1219 23.0719 23.0531 21.2531 23.0531 19.0125V4.99688C23.0625 2.75625 21.1219 0.9375 18.7406 0.9375ZM21.5156 19.0125C21.5156 20.4 20.2687 21.525 18.7406 21.525H5.25937C3.73125 21.525 2.48437 20.4 2.48437 19.0125V4.99688C2.48437 3.60938 3.73125 2.49375 5.25937 2.49375H18.7312C20.2594 2.49375 21.5062 3.61875 21.5062 4.99688L21.5156 19.0125Z" fill="black"/>
<path d="M16.6054 9H7.39457C7.17667 9 7 9.1591 7 9.35533V18.6447C7 18.8409 7.17667 19 7.39457 19H16.6054C16.8233 19 17 18.8409 17 18.6447V9.35533C17 9.1591 16.8233 9 16.6054 9ZM10.1258 17.7213C10.1258 17.9175 9.94912 18.0766 9.73123 18.0766H9.36398C9.14608 18.0766 8.96941 17.9175 8.96941 17.7213V10.2787C8.96941 10.0825 9.14608 9.92338 9.36398 9.92338H9.73123C9.94912 9.92338 10.1258 10.0825 10.1258 10.2787V17.7213ZM12.5783 17.7213C12.5783 17.9175 12.4016 18.0766 12.1837 18.0766H11.8165C11.5986 18.0766 11.4219 17.9175 11.4219 17.7213V10.2787C11.4219 10.0825 11.5986 9.92338 11.8165 9.92338H12.1837C12.4016 9.92338 12.5783 10.0825 12.5783 10.2787V17.7213ZM15.0306 17.7213C15.0306 17.9175 14.8539 18.0766 14.636 18.0766H14.2688C14.0509 18.0766 13.8742 17.9175 13.8742 17.7213V10.2787C13.8742 10.0825 14.0509 9.92338 14.2688 9.92338H14.636C14.8539 9.92338 15.0306 10.0825 15.0306 10.2787V17.7213Z" fill="black"/>
<path d="M13.7412 5C13.9749 5.00007 14.1641 5.18806 14.1641 5.41992V5.50195H17.5771C17.8107 5.50219 18 5.69011 18 5.92188V7.58008C18 7.81183 17.8107 7.99976 17.5771 8H14V7H10V8H6.42285C6.1893 7.99976 6.00001 7.81183 6 7.58008V5.92188C6 5.69011 6.1893 5.50219 6.42285 5.50195H9.83594V5.41992C9.83595 5.18806 10.0251 5.00007 10.2588 5H13.7412Z" fill="black"/>
</g>
<defs>
<clipPath id="clip0_29_23">
<rect width="24" height="24" fill="white"/>
</clipPath>
</defs>
</svg>
