<svg width="250" height="100" viewBox="0 0 250 100" fill="none" xmlns="http://www.w3.org/2000/svg">
<g clip-path="url(#clip0_1_2)">
<path d="M150.781 80.4161C149.885 80.4161 149.437 79.9041 149.437 78.8801V65.0561H165.629V78.8801C165.629 79.9041 165.181 80.4161 164.285 80.4161C163.389 80.4161 162.941 79.9041 162.941 78.8801V67.7441H152.125V78.8801C152.125 79.9041 151.677 80.4161 150.781 80.4161ZM180.621 80.4161C179.725 80.4161 179.277 79.8935 179.277 78.8481V67.7441H172.941C172.226 67.7441 171.752 67.8295 171.517 68.0001C171.293 68.1708 171.181 68.5228 171.181 69.0561V75.8401C171.181 76.8641 171.042 77.7015 170.765 78.3521C170.488 78.9921 170.056 79.4668 169.469 79.7761C168.882 80.0748 168.12 80.2241 167.181 80.2241C166.626 80.2241 166.173 80.1228 165.821 79.9201C165.469 79.7175 165.293 79.3601 165.293 78.8481C165.293 77.9521 165.858 77.5041 166.989 77.5041C167.565 77.5041 167.96 77.4135 168.173 77.2321C168.386 77.0508 168.493 76.7148 168.493 76.2241V69.4081C168.493 68.2775 168.616 67.3975 168.861 66.7681C169.106 66.1388 169.533 65.6961 170.141 65.4401C170.76 65.1841 171.608 65.0561 172.685 65.0561H181.965V78.8161C181.965 79.8828 181.517 80.4161 180.621 80.4161ZM191.064 80.1921C189.016 80.1921 187.384 80.0108 186.168 79.6481C184.962 79.2748 184.093 78.6615 183.56 77.8081C183.037 76.9441 182.776 75.7761 182.776 74.3041V70.9441C182.776 69.4721 183.037 68.3095 183.56 67.4561C184.093 66.5921 184.962 65.9788 186.168 65.6161C187.384 65.2428 189.016 65.0561 191.064 65.0561H191.992C194.04 65.0561 195.666 65.2428 196.872 65.6161C198.077 65.9895 198.941 66.6081 199.464 67.4721C199.986 68.3255 200.248 69.4828 200.248 70.9441V72.6721H185.464V74.2081C185.464 75.1468 185.592 75.8561 185.848 76.3361C186.114 76.8055 186.648 77.1201 187.448 77.2801C188.248 77.4295 189.453 77.5041 191.064 77.5041H195.992C196.493 77.5041 196.824 77.4135 196.984 77.2321C197.154 77.0508 197.24 76.6935 197.24 76.1601C197.24 75.6268 197.357 75.2108 197.592 74.9121C197.837 74.6135 198.173 74.4641 198.6 74.4641C199.037 74.4748 199.368 74.6401 199.592 74.9601C199.816 75.2695 199.928 75.7121 199.928 76.2881C199.928 77.1735 199.794 77.9095 199.528 78.4961C199.261 79.0721 198.85 79.4988 198.296 79.7761C197.752 80.0535 197.058 80.1921 196.216 80.1921H191.064ZM185.48 69.9841H197.544C197.426 69.0455 197.048 68.4481 196.408 68.1921C196.024 68.0428 195.453 67.9308 194.696 67.8561C193.949 67.7815 193.048 67.7441 191.992 67.7441H191.064C189.912 67.7441 188.957 67.7868 188.2 67.8721C187.453 67.9468 186.904 68.0641 186.552 68.2241C185.912 68.4908 185.554 69.0775 185.48 69.9841ZM202.179 80.4161C201.785 80.4161 201.465 80.2775 201.219 80.0001C200.985 79.7228 200.867 79.3708 200.867 78.9441V66.3041C200.867 65.8561 200.995 65.4988 201.251 65.2321C201.507 64.9655 201.849 64.8321 202.275 64.8321C202.659 64.8321 202.969 64.9708 203.203 65.2481C203.438 65.5148 203.555 65.8668 203.555 66.3041V71.2641H206.627C206.841 71.2641 207.097 71.1041 207.395 70.7841C207.705 70.4641 208.142 69.8828 208.707 69.0401C209.145 68.4108 209.641 67.7761 210.195 67.1361C210.761 66.4961 211.481 65.9468 212.355 65.4881C213.241 65.0295 214.222 64.8001 215.299 64.8001C215.801 64.8001 216.201 64.9175 216.499 65.1521C216.809 65.3868 216.963 65.7175 216.963 66.1441C216.963 66.5921 216.819 66.9281 216.531 67.1521C216.254 67.3761 215.843 67.4881 215.299 67.4881C214.745 67.4881 214.201 67.7015 213.667 68.1281C213.145 68.5548 212.505 69.3068 211.747 70.3841C211.555 70.6508 211.369 70.9015 211.187 71.1361C211.017 71.3601 210.851 71.5681 210.691 71.7601C210.542 71.9415 210.393 72.1068 210.243 72.2561C211.075 72.6188 211.827 73.1201 212.499 73.7601C213.182 74.4001 213.641 75.0508 213.875 75.7121C214.131 76.3735 214.382 76.8748 214.627 77.2161C214.873 77.5575 215.097 77.7281 215.299 77.7281C215.801 77.7281 216.201 77.8508 216.499 78.0961C216.809 78.3415 216.963 78.6668 216.963 79.0721C216.963 79.9681 216.409 80.4161 215.299 80.4161C214.553 80.4161 213.907 80.3041 213.363 80.0801C212.819 79.8561 212.387 79.5148 212.067 79.0561C211.747 78.6188 211.486 78.1921 211.283 77.7761C211.081 77.3601 210.846 76.9388 210.579 76.5121C210.313 76.0748 209.923 75.6321 209.411 75.1841C208.526 74.3628 207.001 73.9521 204.835 73.9521H203.555V78.9761C203.555 79.4135 203.433 79.7601 203.187 80.0161C202.942 80.2828 202.606 80.4161 202.179 80.4161ZM224.976 80.1921C222.928 80.1921 221.296 80.0108 220.08 79.6481C218.875 79.2748 218.005 78.6615 217.472 77.8081C216.949 76.9441 216.688 75.7761 216.688 74.3041V70.9441C216.688 69.4721 216.949 68.3095 217.472 67.4561C218.005 66.5921 218.875 65.9788 220.08 65.6161C221.296 65.2428 222.928 65.0561 224.976 65.0561H229.488C230.331 65.0561 231.024 65.2001 231.568 65.4881C232.123 65.7655 232.533 66.1975 232.8 66.7841C233.067 67.3601 233.2 68.0961 233.2 68.9921C233.2 69.5681 233.083 70.0108 232.848 70.3201C232.624 70.6295 232.293 70.7841 231.856 70.7841C231.429 70.7841 231.099 70.6401 230.864 70.3521C230.629 70.0535 230.512 69.6428 230.512 69.1201C230.512 68.5868 230.427 68.2241 230.256 68.0321C230.085 67.8401 229.755 67.7441 229.264 67.7441H224.976C223.365 67.7441 222.16 67.8241 221.36 67.9841C220.56 68.1335 220.027 68.4428 219.76 68.9121C219.504 69.3815 219.376 70.0908 219.376 71.0401V74.2081C219.376 75.1468 219.504 75.8561 219.76 76.3361C220.027 76.8055 220.56 77.1201 221.36 77.2801C222.16 77.4295 223.365 77.5041 224.976 77.5041H229.264C229.765 77.5041 230.096 77.4135 230.256 77.2321C230.427 77.0508 230.512 76.6935 230.512 76.1601C230.512 75.6588 230.624 75.2535 230.848 74.9441C231.072 74.6241 231.397 74.4641 231.824 74.4641C232.24 74.4641 232.571 74.6188 232.816 74.9281C233.072 75.2268 233.2 75.6801 233.2 76.2881C233.2 77.1735 233.067 77.9095 232.8 78.4961C232.533 79.0721 232.123 79.4988 231.568 79.7761C231.024 80.0535 230.331 80.1921 229.488 80.1921H224.976Z" fill="#6200FF" fill-opacity="0.5"/>
<path d="M163.322 53.6668C166.262 50.7786 168.409 50.8377 171.939 50.926C175.248 51.0087 179.662 52.5666 179.662 52.5666C179.679 52.5728 180.306 52.8076 180.849 53.5327C181.517 54.4245 181.442 54.9448 181.442 54.9448C181.445 54.9735 181.599 56.8807 180.621 58.8054C179.153 61.6964 175.079 62.8871 173.041 65.4087C170.528 68.5165 170.763 72.4861 167.908 75.2822C164.366 78.7511 154.313 79.4296 154.313 79.4296C154.313 79.4296 155.848 78.6609 156.765 78.0583C157.553 77.5407 158.049 77.2951 158.698 76.611C159.813 75.4345 160.064 74.4435 160.558 72.8994C161.635 69.5312 160.753 66.9637 160.255 63.8489C159.757 60.7339 160.382 56.5551 163.322 53.6668ZM190.681 41.8276C191.478 41.7823 192.701 42.7533 193.632 44.246C194.397 45.4731 194.757 46.7226 194.645 47.5149C188.442 51.0366 182.489 54.1719 182.451 54.1922C182.448 54.1812 182.244 53.2971 181.858 52.7811C181.473 52.2672 180.686 51.8229 180.67 51.8141C180.705 51.7783 185.491 46.8436 190.681 41.8276ZM251.415 2.56028L250.448 3.74756C250.408 3.78579 223.048 29.9658 202.66 42.7726C200.603 44.0649 198.196 45.483 195.775 46.8692C196.065 45.9552 195.8 44.5792 194.999 43.2952C194.009 41.7081 192.533 40.7933 191.494 41.0463C193.491 39.1293 195.514 37.2361 197.319 35.638C215.353 19.6786 248.188 0.793896 248.222 0.774356L249.634 0.182099L251.415 2.56028Z" fill="black"/>
<path d="M140.731 78.1545C140.731 78.1545 144.382 78.2954 146.654 78.5545C148.685 78.7864 151.731 79.3545 151.731 79.3545L147.5 79.5514C147.5 79.5514 144.409 79.6645 142.689 80.0773C141.843 80.2804 141.843 79.8804 141.843 79.8804L141.577 80.1545L140.731 79.7545V78.1545Z" fill="black"/>
<path d="M64.8467 64.3517C65.2627 64.3517 65.5886 64.4963 65.8232 64.7843C66.0685 65.0616 66.1914 65.4402 66.1914 65.92V79.3605C66.1913 80.3841 65.7325 80.8965 64.8154 80.8966C63.9409 80.8966 63.503 80.3842 63.5029 79.3605V65.92C63.5029 65.4401 63.6208 65.0616 63.8555 64.7843C64.1007 64.4964 64.4309 64.3518 64.8467 64.3517ZM44.7656 64.8322C45.6615 64.8322 46.1094 65.3553 46.1094 66.4005V78.88C46.1094 79.9039 45.6615 80.416 44.7656 80.4161C43.8696 80.4161 43.4209 79.904 43.4209 78.88V73.5363H32.6055V78.88C32.6055 79.9039 32.1575 80.416 31.2617 80.4161C30.3657 80.4161 29.917 79.904 29.917 78.88V66.4005C29.917 65.3552 30.344 64.8322 31.1973 64.8322C32.1359 64.8322 32.6055 65.3552 32.6055 66.4005V70.8478H43.4209V66.4005C43.4209 65.3552 43.8696 64.8322 44.7656 64.8322ZM68.7373 64.8322C69.6332 64.8322 70.0811 65.387 70.0811 66.4962V76.5118L81.1689 65.0558H83.585V78.8478C83.585 79.8931 83.1372 80.4161 82.2412 80.4161C81.3452 80.4161 80.8975 79.8614 80.8975 78.7521V68.8644L69.9053 80.1925H67.3936V66.4005C67.3936 65.3552 67.8413 64.8322 68.7373 64.8322ZM106.368 60.1603C107.477 60.1604 108.032 60.6401 108.032 61.5997C108.032 62.1117 107.872 62.4317 107.552 62.5597C107.242 62.6877 106.848 62.7838 106.368 62.8478C105.91 62.9118 105.493 63.1734 105.12 63.632C104.757 64.08 104.288 64.7684 103.712 65.6964C103.221 66.4963 102.827 67.1364 102.528 67.6163C102.24 68.0963 101.984 68.4965 101.76 68.8165C101.536 69.1364 101.269 69.4507 100.96 69.7599C100.753 69.9672 100.487 70.2091 100.167 70.4884C100.617 70.8876 101.026 71.3001 101.392 71.7277C101.904 72.3037 102.357 72.8802 102.752 73.4562C103.147 74.032 103.509 74.5811 103.84 75.1036C104.405 75.9675 104.864 76.6026 105.216 77.0079C105.578 77.4024 105.973 77.6422 106.399 77.7277C106.559 77.7596 106.768 77.8033 107.023 77.8566C107.29 77.8992 107.525 78.0112 107.728 78.1925C107.93 78.3738 108.032 78.6772 108.032 79.1036C108.032 79.9783 107.509 80.4161 106.464 80.4161C105.685 80.4161 104.88 80.1605 104.048 79.6486C103.227 79.1259 102.432 78.3463 101.664 77.3116C101.493 77.0663 101.232 76.6935 100.88 76.1925C100.539 75.6805 100.224 75.211 99.9355 74.7843C99.2849 73.803 98.7252 73.0719 98.2559 72.5919C97.7972 72.112 97.3435 71.8722 96.8955 71.8722H94.6562V78.9445C94.6562 79.371 94.5274 79.7229 94.2715 80.0001C94.0262 80.2772 93.696 80.416 93.2803 80.4161C92.8856 80.4161 92.5656 80.2824 92.3203 80.0157C92.0857 79.7491 91.9678 79.3923 91.9678 78.9445V61.7599C91.9678 61.3227 92.0907 60.955 92.3359 60.6564C92.5813 60.347 92.928 60.1925 93.376 60.1925C94.2292 60.1925 94.6562 60.7148 94.6562 61.7599V69.1837H97.2158C97.5037 69.1837 97.8288 69.0399 98.1914 68.7521C98.5541 68.4534 98.981 67.973 99.4717 67.3116C99.9623 66.6397 100.544 65.7389 101.216 64.6085C101.44 64.2352 101.712 63.7974 102.032 63.296C102.352 62.7842 102.72 62.2935 103.136 61.8243C103.562 61.3443 104.043 60.9491 104.576 60.6398C105.12 60.3199 105.718 60.1603 106.368 60.1603ZM141.871 64.8322C142.745 64.8323 143.183 65.3554 143.183 66.4005V78.88C143.183 79.9039 142.735 80.416 141.839 80.4161C140.943 80.4161 140.494 79.8722 140.494 78.7843V69.4718L135.614 76.4161C135.401 76.7147 135.076 76.8644 134.639 76.8644C134.436 76.8644 134.233 76.8317 134.03 76.7677C133.838 76.7037 133.684 76.5867 133.566 76.4161L128.687 69.4718V78.7843C128.686 79.8721 128.239 80.4161 127.343 80.4161C126.447 80.4161 125.999 79.904 125.999 78.88V66.4005C125.999 65.3553 126.425 64.8323 127.278 64.8322C127.801 64.8322 128.26 65.1046 128.654 65.6486L134.574 73.9357L140.526 65.6486C140.91 65.1046 141.359 64.8322 141.871 64.8322ZM48.6875 64.8322C49.5832 64.8323 50.0312 65.3553 50.0312 66.4005V71.0402H56.9111C58.1376 71.0402 59.1721 71.2216 60.0146 71.5841C60.8678 71.936 61.5188 72.4534 61.9668 73.1359C62.4148 73.8079 62.6387 74.635 62.6387 75.6163C62.6386 76.5869 62.4147 77.4132 61.9668 78.0958C61.5295 78.7678 60.8845 79.28 60.0312 79.632C59.1779 79.984 58.1378 80.1712 56.9111 80.1925H47.3428V66.4005C47.3428 65.3552 47.7915 64.8322 48.6875 64.8322ZM116.967 65.0558C119.015 65.0558 120.641 65.243 121.847 65.6163C123.052 65.9896 123.916 66.608 124.438 67.4718C124.961 68.3251 125.223 69.4831 125.223 70.9445V74.3038C125.223 75.7652 124.961 76.9281 124.438 77.7921C123.916 78.6454 123.052 79.2586 121.847 79.632C120.641 80.0053 119.015 80.1925 116.967 80.1925H116.039C113.991 80.1925 112.359 80.0112 111.143 79.6486C109.937 79.2752 109.068 78.6611 108.534 77.8077C108.012 76.9438 107.751 75.7756 107.751 74.3038V70.9445C107.751 69.4726 108.012 68.3095 108.534 67.4562C109.067 66.5922 109.937 65.979 111.143 65.6163C112.359 65.243 113.991 65.0558 116.039 65.0558H116.967ZM50.0312 77.504H56.623C57.487 77.504 58.2548 77.397 58.9268 77.1837C59.6093 76.9598 59.9511 76.4909 59.9512 75.7765C59.9512 75.1899 59.8233 74.752 59.5674 74.464C59.3221 74.1653 58.9485 73.9682 58.4473 73.8722C57.9566 73.7762 57.3484 73.7277 56.623 73.7277H50.0312V77.504ZM116.039 67.7443C114.428 67.7443 113.223 67.8245 112.423 67.9845C111.623 68.1338 111.089 68.4429 110.822 68.9122C110.566 69.3816 110.438 70.091 110.438 71.0402V74.2081C110.438 75.1467 110.566 75.8561 110.822 76.3361C111.089 76.8054 111.623 77.1204 112.423 77.2804C113.223 77.4297 114.429 77.504 116.039 77.504H116.967C118.567 77.504 119.761 77.4297 120.551 77.2804C121.351 77.1204 121.879 76.8054 122.135 76.3361C122.401 75.8561 122.534 75.1467 122.534 74.2081V71.0402C122.534 70.0909 122.401 69.3816 122.135 68.9122C121.879 68.4429 121.351 68.1338 120.551 67.9845C119.761 67.8245 118.567 67.7443 116.967 67.7443H116.039ZM72.8975 60.5441C72.8975 61.0241 72.95 61.3232 73.0566 61.4405C73.1633 61.5472 73.4409 61.5997 73.8887 61.5997H77.1533C77.5902 61.5997 77.857 61.547 77.9531 61.4405C78.0598 61.3232 78.1133 61.0241 78.1133 60.5441V58.6564H80.8008V60.0323C80.8008 61.6001 80.5451 62.7039 80.0332 63.3439C79.5319 63.9732 78.6463 64.2882 77.377 64.2882H73.6328C72.3745 64.2882 71.4895 63.968 70.9775 63.3282C70.4656 62.6776 70.209 61.5789 70.209 60.0323V58.6564H72.8975V60.5441ZM21.4795 18.4562C22.5674 18.4562 23.1122 18.9041 23.1123 19.7999C23.1123 20.6959 22.5675 21.1437 21.4795 21.1437H11.6875V23.5763H16.3916C17.8849 23.5763 19.2133 23.923 20.376 24.6163C21.5491 25.2989 22.4716 26.2373 23.1436 27.4318C23.8262 28.6264 24.1679 29.9866 24.168 31.5118C24.168 33.0265 23.8322 34.3816 23.1602 35.5763C22.4882 36.7603 21.5649 37.6984 20.3916 38.3917C19.2183 39.0744 17.8849 39.4161 16.3916 39.4161H10.2803C9.42694 39.4161 9 38.8931 9 37.8478V18.4562H21.4795ZM25.918 23.8322C26.814 23.8322 27.2627 24.3869 27.2627 25.4962V35.5118L38.3506 24.0558H40.7666V37.8478C40.7666 38.8929 40.3185 39.4159 39.4229 39.4161C38.5269 39.4161 38.0781 38.8614 38.0781 37.7521V27.8644L27.0859 39.1925H24.5742V25.4005C24.5742 24.3553 25.0222 23.8323 25.918 23.8322ZM75.2461 37.8165C75.246 38.8829 74.7982 39.4161 73.9023 39.4161C73.0064 39.4161 72.5586 38.8931 72.5586 37.8478V26.7443H66.2227C65.5083 26.7443 65.0336 26.8296 64.7988 27.0001C64.5749 27.1708 64.462 27.5226 64.4619 28.0558V34.84C64.4619 35.8639 64.3232 36.701 64.0459 37.3517C63.7686 37.9917 63.3367 38.4672 62.75 38.7765C62.1634 39.075 61.4003 39.2238 60.4619 39.2238C59.9075 39.2237 59.4544 39.1226 59.1025 38.92C58.7505 38.7174 58.5742 38.3598 58.5742 37.8478C58.5744 36.952 59.14 36.504 60.2705 36.504C60.8461 36.504 61.2407 36.4137 61.4541 36.2325C61.6674 36.0512 61.7744 35.7144 61.7744 35.2238V28.4083C61.7744 27.2777 61.8972 26.397 62.1426 25.7677C62.3879 25.1386 62.815 24.6965 63.4229 24.4405C64.0415 24.1846 64.8896 24.0558 65.9668 24.0558H75.2461V37.8165ZM77.8809 23.8322C78.7769 23.8322 79.2246 24.3869 79.2246 25.4962V35.5118L90.3125 24.0558H92.7285V37.8478C92.7285 38.8931 92.2808 39.4161 91.3848 39.4161C90.4888 39.4161 90.041 38.8614 90.041 37.7521V27.8644L79.0488 39.1925H76.5371V25.4005C76.5371 24.3552 76.9849 23.8322 77.8809 23.8322ZM123.729 24.0558C124.775 24.0559 125.297 24.5046 125.297 25.4005C125.297 26.2961 124.774 26.7442 123.729 26.7443H119.153V37.9757C119.153 38.4129 119.014 38.7598 118.737 39.0157C118.46 39.2824 118.086 39.4161 117.617 39.4161C116.636 39.4161 116.146 38.9357 116.146 37.9757V26.7443H111.537C110.492 26.7443 109.969 26.2962 109.969 25.4005C109.969 24.5045 110.492 24.0558 111.537 24.0558H123.729ZM156.698 23.8322C157.594 23.8323 158.042 24.3444 158.042 25.3683V37.8478C158.042 38.8931 157.604 39.4161 156.729 39.4161C155.812 39.416 155.354 38.9039 155.354 37.88V34.0079C154.052 34.9465 152.378 35.4161 150.33 35.4161H149.21C147.343 35.4161 145.845 35.224 144.714 34.84C143.594 34.4453 142.784 33.8103 142.282 32.9357C142.025 32.4822 141.835 31.9545 141.71 31.3527V31.672H126.926V33.2081C126.926 34.1468 127.055 34.8561 127.311 35.3361C127.577 35.8053 128.11 36.1204 128.91 36.2804C129.71 36.4297 130.916 36.504 132.526 36.504H137.454C137.955 36.504 138.286 36.4138 138.446 36.2325C138.617 36.0512 138.702 35.6935 138.702 35.1603C138.702 34.6271 138.819 34.2109 139.054 33.9122C139.299 33.6136 139.636 33.464 140.062 33.464C140.5 33.4747 140.83 33.6403 141.054 33.9601C141.278 34.2694 141.39 34.7122 141.39 35.2882C141.39 36.1735 141.257 36.9096 140.99 37.4962C140.724 38.0722 140.312 38.4992 139.758 38.7765C139.214 39.0537 138.52 39.1925 137.678 39.1925H132.526C130.478 39.1925 128.846 39.0112 127.63 38.6486C126.425 38.2752 125.556 37.661 125.022 36.8077C124.5 35.9438 124.238 34.7758 124.238 33.3038V29.9445C124.238 28.4725 124.5 27.3095 125.022 26.4562C125.556 25.5923 126.425 24.979 127.63 24.6163C128.846 24.243 130.478 24.0558 132.526 24.0558H133.454C135.502 24.0558 137.129 24.243 138.334 24.6163C139.539 24.9896 140.403 25.608 140.926 26.4718C141.2 26.9194 141.4 27.4516 141.53 28.0665V25.3683C141.53 24.3443 141.978 23.8322 142.874 23.8322C143.77 23.8322 144.218 24.3443 144.218 25.3683V29.3361C144.218 30.2854 144.346 31.0055 144.602 31.4962C144.858 31.9761 145.343 32.3011 146.058 32.4718C146.772 32.6425 147.823 32.7277 149.21 32.7277H150.33C152.015 32.7276 153.273 32.3123 154.105 31.4806C154.937 30.6486 155.354 29.3895 155.354 27.7042V25.3683C155.354 24.3443 155.802 23.8322 156.698 23.8322ZM55.4062 18.4562C56.5156 18.4562 57.0703 18.9148 57.0703 19.8322C57.0703 20.2801 56.9158 20.611 56.6064 20.8243C56.2971 21.0376 55.8542 21.1437 55.2783 21.1437H53.8223C53.3959 21.1437 52.9962 21.1496 52.623 21.1603C52.2498 21.1603 51.8762 21.1652 51.5029 21.1759C51.1403 21.1759 50.7559 21.1868 50.3506 21.2081C49.1986 21.2615 48.1902 21.3734 47.3262 21.5441C46.473 21.7041 45.8061 21.9815 45.3262 22.3761C44.8571 22.76 44.6231 23.3201 44.623 24.0558H51.6943C53.5715 24.0558 55.0705 24.248 56.1904 24.632C57.3211 25.0053 58.1324 25.6244 58.623 26.4884C59.1242 27.3524 59.375 28.5047 59.375 29.9445V33.3038C59.375 34.7651 59.1134 35.9281 58.5908 36.7921C58.0682 37.6453 57.2041 38.2586 55.999 38.632C54.7937 39.0053 53.1662 39.1925 51.1182 39.1925H50.1582C48.1211 39.1925 46.4942 39.0053 45.2783 38.632C44.0732 38.248 43.2091 37.6188 42.6865 36.7443C42.1639 35.8696 41.9023 34.6908 41.9023 33.2081V24.5685C41.9023 23.3525 42.1163 22.349 42.543 21.5597C42.9696 20.7599 43.6256 20.1415 44.5107 19.7042C45.4066 19.2563 46.5531 18.9472 47.9502 18.7765C48.8675 18.6592 49.9771 18.5789 51.2783 18.5363C52.5902 18.4829 53.9664 18.4562 55.4062 18.4562ZM102.729 24.0558C104.777 24.0558 106.404 24.243 107.609 24.6163C108.814 24.9896 109.679 25.608 110.201 26.4718C110.724 27.3251 110.985 28.4831 110.985 29.9445V33.3038C110.985 34.7651 110.724 35.9281 110.201 36.7921C109.679 37.6454 108.815 38.2586 107.609 38.632C106.404 39.0053 104.777 39.1925 102.729 39.1925H101.801C99.7531 39.1925 98.1212 39.0112 96.9053 38.6486C95.6999 38.2752 94.8302 37.6611 94.2969 36.8077C93.7744 35.9438 93.5127 34.7756 93.5127 33.3038V29.9445C93.5127 28.4725 93.7743 27.3095 94.2969 26.4562C94.8302 25.5922 95.6999 24.979 96.9053 24.6163C98.1212 24.243 99.753 24.0558 101.801 24.0558H102.729ZM11.6875 36.7277H16.3916C17.4155 36.7277 18.3062 36.5146 19.0635 36.088C19.8315 35.6507 20.4238 35.0425 20.8398 34.2638C21.2664 33.4745 21.4795 32.5571 21.4795 31.5118C21.4795 30.456 21.2665 29.5385 20.8398 28.7599C20.4238 27.9706 19.8314 27.3573 19.0635 26.92C18.3062 26.4828 17.4155 26.2638 16.3916 26.2638H11.6875V36.7277ZM44.5908 33.2081C44.5908 34.1468 44.7186 34.8561 44.9746 35.3361C45.2413 35.8054 45.7693 36.1204 46.5586 36.2804C47.3585 36.4297 48.5584 36.504 50.1582 36.504H51.1182C52.7178 36.504 53.9128 36.4297 54.7021 36.2804C55.5021 36.1204 56.0311 35.8054 56.2871 35.3361C56.5537 34.8561 56.6865 34.1466 56.6865 33.2081V30.0402C56.6865 29.1015 56.5637 28.3972 56.3184 27.9279C56.073 27.4588 55.5932 27.1445 54.8789 26.9845C54.1642 26.8245 53.1023 26.7443 51.6943 26.7443H44.5908V33.2081ZM101.801 26.7443C100.191 26.7443 98.9855 26.8246 98.1855 26.9845C97.3855 27.1338 96.8516 27.4429 96.585 27.9122C96.329 28.3816 96.2012 29.0909 96.2012 30.0402V33.2081C96.2012 34.1467 96.329 34.8561 96.585 35.3361C96.8516 35.8054 97.3855 36.1204 98.1855 36.2804C98.9855 36.4297 100.191 36.504 101.801 36.504H102.729C104.329 36.504 105.524 36.4297 106.313 36.2804C107.113 36.1204 107.641 35.8053 107.897 35.3361C108.164 34.8561 108.297 34.1467 108.297 33.2081V30.0402C108.297 29.091 108.164 28.3816 107.897 27.9122C107.642 27.443 107.113 27.1339 106.313 26.9845C105.524 26.8245 104.329 26.7443 102.729 26.7443H101.801ZM176.55 29.2404C176.859 29.2405 177.12 29.3525 177.333 29.5763C177.557 29.7896 177.669 30.0511 177.669 30.3605C177.669 30.659 177.557 30.9198 177.333 31.1437C177.12 31.3676 176.859 31.4805 176.55 31.4806H167.718C167.419 31.4806 167.158 31.3677 166.934 31.1437C166.71 30.9198 166.598 30.6589 166.598 30.3605C166.598 30.0511 166.71 29.7896 166.934 29.5763C167.158 29.3523 167.419 29.2404 167.718 29.2404H176.55ZM132.526 26.7443C131.374 26.7443 130.419 26.7869 129.662 26.8722C128.915 26.9469 128.366 27.0638 128.014 27.2238C127.374 27.4905 127.017 28.0779 126.942 28.9845H139.006C138.889 28.0459 138.51 27.4485 137.87 27.1925C137.486 27.0432 136.915 26.9312 136.158 26.8566C135.412 26.7819 134.51 26.7443 133.454 26.7443H132.526Z" fill="black"/>
</g>
<defs>
<clipPath id="clip0_1_2">
<rect width="250" height="100" fill="white"/>
</clipPath>
</defs>
</svg>
