<svg width="25" height="24" viewBox="0 0 25 24" fill="none" xmlns="http://www.w3.org/2000/svg">
<path d="M4.87847 11.2251C5.26895 10.8349 5.90209 10.8348 6.29253 11.2251C6.68306 11.6156 6.68306 12.2496 6.29253 12.6401L2.91265 16.019C1.54609 17.3859 1.54595 19.6025 2.91265 20.9692C4.2794 22.336 6.49599 22.3358 7.86284 20.9692L11.2427 17.5893C11.6333 17.1991 12.2664 17.1989 12.6568 17.5893C13.0471 17.9798 13.047 18.6129 12.6568 19.0034L9.38921 22.271C7.24133 24.4189 3.75877 24.4189 1.61089 22.271C-0.536949 20.1231 -0.536978 16.6405 1.61089 14.4927L4.87847 11.2251ZM13.4927 2.61082C15.6406 0.463098 19.1232 0.463025 21.271 2.61082C22.6443 3.98408 23.1372 5.90266 22.7544 7.66941C22.1766 7.33314 21.547 7.07675 20.8794 6.91648C21.0111 5.8794 20.6798 4.79494 19.8834 3.99851C18.5165 2.63175 16.301 2.63177 14.9341 3.99851L11.6382 7.29343C11.2477 7.68385 10.6147 7.68392 10.2242 7.29343C9.83387 6.90293 9.83382 6.26984 10.2242 5.87937L13.4927 2.61082Z" fill="black"/>
<circle cx="19.2396" cy="13.722" r="5" fill="#FF0000"/>
<path d="M22.2396 14.722H16.2396V12.722H22.2396V14.722Z" fill="white"/>
<rect x="14.7249" y="7.72198" width="2" height="12" rx="1" transform="rotate(45 14.7249 7.72198)" fill="black"/>
</svg>
