<?xml version="1.0" encoding="utf-8"?>
<!-- Svg Vector Icons : http://www.onlinewebfonts.com/icon -->
<!DOCTYPE svg PUBLIC "-//W3C//DTD SVG 1.1//EN" "http://www.w3.org/Graphics/SVG/1.1/DTD/svg11.dtd">
<svg version="1.1" xmlns="http://www.w3.org/2000/svg" xmlns:xlink="http://www.w3.org/1999/xlink" x="0px" y="0px" viewBox="0 0 256 256" enable-background="new 0 0 256 256" xml:space="preserve">
<metadata> Svg Vector Icons : http://www.onlinewebfonts.com/icon </metadata>
<g><g><path fill="#000000" d="M185.1,64.8c-3.3-3.2-7.6-4.9-12.2-4.9s-8.9,1.7-12.1,4.9l-6.2,6.1l-3.7,3.8v0.1l-78.8,78.6l0.7,0.7l-18.4,46.8l48.1-17.8l0.6,0.5l85.3-85.3l0,0l3.4-3.5c3.1-3.1,4.8-7.3,4.8-11.8c0-4.6-1.9-9-5.3-12.2L185.1,64.8z M157.5,86.9l8.3,8.1c1.3,1.2,2.5,2.4,3.6,3.5l-8.3,8.3l-11.9-11.6L157.5,86.9z M139.8,104.5l11.9,11.6L102.9,165l-12-11.7L139.8,104.5z M77.5,178.2l5.5-14.1l9,8.7L77.5,178.2z M166.8,77.5l3.3-3.2c1.5-1.5,4.3-1.4,5.9,0.1l6.2,5.9c0.8,0.8,1.2,1.8,1.2,2.8c0,0.6-0.1,1.6-0.9,2.4l-3.6,3.6L166.8,77.5z"/><path fill="#000000" d="M199.9,10H56.1C30.7,10,10,29.4,10,53.3v149.5c0,23.9,20.7,43.3,46.1,43.3h143.7c25.5,0,46.1-19.4,46.1-43.3V53.3C246,29.4,225.3,10,199.9,10z M229.5,202.8c0,14.8-13.3,26.8-29.6,26.8H56.1c-16.3,0-29.6-12-29.6-26.8V53.3c0-14.8,13.3-26.7,29.6-26.7h143.7c16.3,0,29.6,12,29.6,26.7L229.5,202.8L229.5,202.8z"/></g></g>
</svg>